#!OML:ASF F:\VICON\USERDATA\Patient Classification 1\PLAYGROUND\JustinFriday\JustinFriday.ASF
:FULLY-SPECIFIED
:DEGREES
1881
root 18.6438 18.2289 53.4832 -346.164 -221.186 14.4918
lowerback 10.2126 3.64315 9.32477
upperback 4.63684 6.1386 2.23068
thorax -0.127282 3.35986 -3.4562
lowerneck -25.5753 -1.99365 3.26061
upperneck 16.796 -5.12141 6.10702
head 9.62479 -1.30724 0.852768
rclavicle 1.06847e-014 -1.87852e-014
rhumerus -1.67775 4.29737 -90.9401
rradius 35.1302
rwrist -7.9572
rhand -18.6156 -19.9561
rfingers 7.12502
rthumb 7.67617 -49.7967
lclavicle 1.06847e-014 -1.87852e-014
lhumerus -27.8338 1.36496 76.7633
lradius 56.4907
lwrist 10.5263
lhand -20.8139 -8.62819
lfingers 7.12502
lthumb 5.55406 21.279
rfemur -7.23108 -2.12101 33.4117
rtibia 20.4837
rfoot -13.7582 -12.496
rtoes 18.2312
lfemur -29.2513 -6.83238 -7.22271
ltibia 62.1554
lfoot -21.6857 -15.9342
ltoes 0.19603
1882
root 18.6798 18.2165 53.4399 -345.581 -221.185 14.6821
lowerback 9.91046 3.61481 9.73699
upperback 4.4355 6.09916 2.23556
thorax -0.132463 3.33243 -3.65597
lowerneck -25.41 -2.00461 2.90554
upperneck 16.8175 -5.06298 6.39412
head 9.62172 -1.27073 1.02009
rclavicle -5.7337e-014 -1.98785e-015
rhumerus -1.95694 4.3633 -90.991
rradius 35.5316
rwrist -8.08936
rhand -18.1728 -19.9599
rfingers 7.12502
rthumb 8.10359 -49.7846
lclavicle -5.7337e-014 -1.98785e-015
lhumerus -27.865 1.11628 76.7797
lradius 56.9712
lwrist 10.4046
lhand -20.524 -8.84266
lfingers 7.12502
lthumb 5.83391 21.057
rfemur -7.58335 -2.23293 33.5648
rtibia 20.5633
rfoot -14.125 -12.2859
rtoes 18.5377
lfemur -30.7768 -6.89142 -7.24322
ltibia 62.2768
lfoot -21.3121 -15.9797
ltoes -2.58219
1883
root 18.7335 18.2087 53.4048 -345.644 -221.65 14.5765
lowerback 10.1529 3.73226 9.43048
upperback 4.37425 6.25551 2.26388
thorax -0.347309 3.3918 -3.49793
lowerneck -25.4044 -1.99496 2.7239
upperneck 16.908 -5.00237 6.42798
head 9.65655 -1.24915 1.0705
rclavicle -8.07066e-014 3.01159e-014
rhumerus -2.18002 4.35468 -90.9898
rradius 35.7357
rwrist -8.01421
rhand -17.9808 -19.4928
rfingers 7.12502
rthumb 8.28883 -49.3102
lclavicle -8.07066e-014 3.01159e-014
lhumerus -27.9691 0.701792 76.8368
lradius 57.4798
lwrist 10.4456
lhand -20.514 -8.40345
lfingers 7.12502
lthumb 5.84361 21.496
rfemur -7.31226 -1.79483 33.4745
rtibia 20.6762
rfoot -14.6456 -12.4432
rtoes 18.1955
lfemur -31.4587 -6.48888 -7.61193
ltibia 62.2348
lfoot -21.1554 -17.0081
ltoes 0.817119
1884
root 18.7752 18.2119 53.3644 -345.875 -222.058 14.1258
lowerback 10.3289 3.81017 9.0817
upperback 4.31469 6.33657 2.17689
thorax -0.525339 3.41405 -3.42531
lowerneck -25.4476 -1.88245 2.99328
upperneck 17.1481 -4.8315 5.75371
head 9.7143 -1.23428 0.815678
rclavicle -1.46703e-013 -2.66371e-014
rhumerus -2.39924 4.40052 -90.9897
rradius 35.978
rwrist -8.22392
rhand -18.1059 -19.0429
rfingers 7.12502
rthumb 8.16814 -48.865
lclavicle -1.46703e-013 -2.66371e-014
lhumerus -28.0735 0.397897 76.8833
lradius 57.9934
lwrist 10.3062
lhand -20.1424 -9.43122
lfingers 7.12502
lthumb 6.20231 20.458
rfemur -7.2382 -1.94024 32.9934
rtibia 20.8985
rfoot -15.0974 -11.9317
rtoes 18.022
lfemur -32.2896 -6.26184 -8.39748
ltibia 62.1895
lfoot -21.5471 -17.9392
ltoes -3.9748
1885
root 18.8212 18.2109 53.3256 -345.443 -222.252 14.2811
lowerback 10.1845 3.85554 9.18092
upperback 4.17314 6.38802 2.20914
thorax -0.580775 3.42882 -3.44456
lowerneck -25.4487 -1.75858 3.35272
upperneck 17.4665 -4.64386 4.9241
head 9.78753 -1.22403 0.493714
rclavicle -1.29533e-013 3.94588e-014
rhumerus -2.66966 4.40298 -91.0297
rradius 36.2559
rwrist -8.38924
rhand -17.9983 -19.1532
rfingers 7.12502
rthumb 8.27194 -48.9713
lclavicle -1.29533e-013 3.94588e-014
lhumerus -28.1497 0.280937 76.9457
lradius 58.3865
lwrist 10.0685
lhand -20.2 -9.22488
lfingers 7.12502
lthumb 6.14673 20.6659
rfemur -7.34614 -1.88133 33.1014
rtibia 20.9339
rfoot -15.3498 -11.704
rtoes 18.2734
lfemur -33.4278 -5.8205 -8.61939
ltibia 62.1147
lfoot -23.0652 -17.9115
ltoes -5.45907
1886
root 18.8708 18.1889 53.2904 -344.405 -222.507 14.9877
lowerback 9.87284 3.969 9.53546
upperback 3.9594 6.54188 2.34928
thorax -0.59061 3.49614 -3.48558
lowerneck -25.6284 -1.68108 3.38067
upperneck 17.8323 -4.52116 4.6284
head 9.93743 -1.18982 0.402278
rclavicle 1.49834e-014 3.26007e-014
rhumerus -2.88448 4.41262 -91.0801
rradius 36.464
rwrist -8.40355
rhand -17.9375 -19.6201
rfingers 7.12502
rthumb 8.33061 -49.4358
lclavicle 1.49834e-014 3.26007e-014
lhumerus -28.1511 0.070712 76.9994
lradius 58.6604
lwrist 10.2896
lhand -19.8252 -9.92453
lfingers 7.12502
lthumb 6.50853 19.9555
rfemur -7.69684 -1.76642 33.6807
rtibia 20.902
rfoot -15.1279 -11.764
rtoes 17.0682
lfemur -34.853 -5.23784 -8.30657
ltibia 61.8528
lfoot -24.0171 -18.5929
ltoes -12.1907
1887
root 18.9223 18.185 53.251 -344.076 -222.932 15.1674
lowerback 9.9098 4.09174 9.45273
upperback 3.88249 6.70267 2.39632
thorax -0.686923 3.56584 -3.41216
lowerneck -25.7594 -1.60927 3.26847
upperneck 17.9856 -4.40807 4.66658
head 10.0178 -1.13371 0.450877
rclavicle -7.50412e-014 6.10269e-014
rhumerus -3.05576 4.36546 -91.1715
rradius 36.6137
rwrist -8.35323
rhand -18.2314 -19.6883
rfingers 7.12502
rthumb 8.04699 -49.5151
lclavicle -7.50412e-014 6.10269e-014
lhumerus -28.1602 -0.330088 77.1226
lradius 58.8269
lwrist 10.4321
lhand -20.484 -10.6045
lfingers 7.12502
lthumb 5.8725 19.2941
rfemur -7.49191 -1.71982 33.7624
rtibia 20.5928
rfoot -14.9452 -11.611
rtoes 15.9289
lfemur -35.771 -4.67431 -8.60067
ltibia 61.3811
lfoot -22.0392 -21.0031
ltoes -4.00427
1888
root 18.9712 18.1831 53.2093 -344.368 -223.356 14.7747
lowerback 10.1775 4.16821 9.00506
upperback 3.87638 6.78561 2.33655
thorax -0.876098 3.59226 -3.26595
lowerneck -25.6393 -1.50675 3.33821
upperneck 17.8467 -4.2423 4.4993
head 9.93839 -1.08364 0.406462
rclavicle -1.45113e-014 -4.09496e-014
rhumerus -3.27498 4.21734 -91.2987
rradius 36.7208
rwrist -8.30394
rhand -18.4634 -19.3098
rfingers 7.12502
rthumb 7.82308 -49.1451
lclavicle -1.45113e-014 -4.09496e-014
lhumerus -28.1749 -0.484568 77.2285
lradius 59.0134
lwrist 10.3135
lhand -20.962 -10.3075
lfingers 7.12502
lthumb 5.41105 19.6034
rfemur -6.88418 -1.45894 33.3357
rtibia 20.0614
rfoot -15.2061 -11.1696
rtoes 17.4446
lfemur -36.208 -4.22294 -9.46929
ltibia 60.6954
lfoot -22.074 -21.1316
ltoes -3.71504
1889
root 19.0223 18.1847 53.1666 -344.022 -223.748 14.9216
lowerback 10.1874 4.26476 8.96923
upperback 3.7884 6.90994 2.34551
thorax -0.964426 3.64408 -3.25344
lowerneck -25.507 -1.3819 3.42668
upperneck 17.6642 -4.03041 4.23616
head 9.83813 -1.02599 0.33209
rclavicle 1.39149e-015 4.28381e-014
rhumerus -3.5609 4.09596 -91.4068
rradius 36.9002
rwrist -8.55784
rhand -18.4362 -19.0675
rfingers 7.12502
rthumb 7.84937 -48.9018
lclavicle 1.39149e-015 4.28381e-014
lhumerus -28.2317 -0.500727 77.2797
lradius 59.1653
lwrist 10.2151
lhand -20.7642 -10.4199
lfingers 7.12502
lthumb 5.60203 19.486
rfemur -6.46443 -1.08053 33.3505
rtibia 19.3104
rfoot -15.1414 -10.9485
rtoes 18.0129
lfemur -36.8663 -3.73246 -9.76858
ltibia 59.8424
lfoot -19.7728 -23.5826
ltoes 2.91488
1890
root 19.0749 18.1911 53.1205 -343.508 -224.14 15.333
lowerback 10.2087 4.36041 9.14591
upperback 3.6996 7.06064 2.39506
thorax -1.03587 3.71286 -3.31655
lowerneck -25.6208 -1.27021 3.48471
upperneck 17.8139 -3.86151 3.98744
head 9.90182 -0.971838 0.260021
rclavicle -4.08999e-014 4.86029e-014
rhumerus -3.8557 4.02457 -91.504
rradius 37.0309
rwrist -8.75919
rhand -18.5957 -18.8872
rfingers 7.12502
rthumb 7.69538 -48.7272
lclavicle -4.08999e-014 4.86029e-014
lhumerus -28.3926 -0.479359 77.3101
lradius 59.3146
lwrist 9.94769
lhand -20.3994 -11.8641
lfingers 7.12502
lthumb 5.95423 18.0323
rfemur -6.00493 -0.972818 33.5942
rtibia 18.4302
rfoot -14.5435 -11.0344
rtoes 15.8542
lfemur -37.4278 -3.16485 -9.88222
ltibia 58.8274
lfoot -22.2361 -23.8653
ltoes -1.52572
1891
root 19.1307 18.2061 53.0768 -343.471 -224.635 15.3604
lowerback 10.423 4.47445 8.92645
upperback 3.68817 7.21396 2.40385
thorax -1.17584 3.78014 -3.22473
lowerneck -25.8367 -1.12237 3.62533
upperneck 18.1173 -3.65662 3.60477
head 10.0342 -0.906713 0.132011
rclavicle 5.47652e-014 -1.8487e-014
rhumerus -4.12618 3.91861 -91.5952
rradius 37.0703
rwrist -8.67901
rhand -18.6705 -18.682
rfingers 7.12502
rthumb 7.62322 -48.5246
lclavicle 5.47652e-014 -1.8487e-014
lhumerus -28.443 -0.49497 77.4146
lradius 59.1915
lwrist 9.74181
lhand -20.3758 -9.99489
lfingers 7.12502
lthumb 5.97701 19.9008
rfemur -5.02911 -0.810617 33.5206
rtibia 17.075
rfoot -13.8186 -10.9163
rtoes 15.0502
lfemur -37.6205 -2.59106 -10.3612
ltibia 57.5994
lfoot -20.6298 -25.3948
ltoes 1.22913
